<svg height="511pt" viewBox="-98 1 511 511.99996" width="511pt" xmlns="http://www.w3.org/2000/svg"><path d="m158.394531 105.660156c-28.8125 0-52.246093 23.429688-52.246093 52.242188s23.433593 52.246094 52.246093 52.246094 52.242188-23.433594 52.242188-52.246094-23.429688-52.242188-52.242188-52.242188zm0 0"/><path d="m158.394531 0c-87.0625 0-157.894531 70.84375-157.894531 157.902344 0 51.980468 55.914062 201.0625 102.832031 316.976562 9.261719 22.898438 30.367188 37.121094 55.0625 37.121094 24.691407 0 45.800781-14.222656 55.0625-37.121094 46.914063-115.914062 102.839844-264.996094 102.839844-316.976562 0-87.058594-70.84375-157.902344-157.902344-157.902344zm0 240.886719c-45.761719 0-82.984375-37.222657-82.984375-82.984375 0-45.757813 37.222656-82.984375 82.984375-82.984375 45.757813 0 82.980469 37.226562 82.980469 82.984375 0 45.761718-37.222656 82.984375-82.980469 82.984375zm0 0"/></svg>